<svg xmlns="http://www.w3.org/2000/svg" version="1.1" xmlns:xlink="http://www.w3.org/1999/xlink" width="200" height="200"><svg xmlns="http://www.w3.org/2000/svg" version="1.1" xmlns:xlink="http://www.w3.org/1999/xlink" viewBox="0 0 200 200"><rect width="200" height="200" fill="url('#gradient')"></rect><defs><linearGradient id="SvgjsLinearGradient1001" gradientTransform="rotate(45 0.5 0.5)"><stop offset="0%" stop-color="#7dabaa"></stop><stop offset="100%" stop-color="#f5e8ce"></stop></linearGradient></defs><g><g fill="#2c1f37" transform="matrix(2.6896249817598132,0,0,2.6896249817598132,10.083221221181503,119.90556797048184)" stroke="#15374d" stroke-width="0.2"><path d="M3.65-14.22L6.28-8.05L8.90-14.22L12.60-14.22L8.02-5.11L8.02 0L4.54 0L4.54-5.11L-0.03-14.22L3.65-14.22ZM24.21-12.46L17.48-2.64L24.28-2.64L24.28 0L13.20 0L13.20-1.81L19.98-11.57L13.16-11.57L13.16-14.22L24.21-14.22L24.21-12.46ZM31.60 0L25.83 0L25.83-14.22L30.94-14.22Q33.68-14.22 35.11-13.21Q36.54-12.21 36.54-10.29L36.54-10.29Q36.54-9.19 36.04-8.41Q35.53-7.63 34.54-7.26L34.54-7.26Q35.65-6.96 36.25-6.16Q36.85-5.36 36.85-4.21L36.85-4.21Q36.85-2.12 35.52-1.07Q34.20-0.02 31.60 0L31.60 0ZM31.66-6.04L29.26-6.04L29.26-2.64L31.50-2.64Q32.43-2.64 32.93-3.06Q33.43-3.49 33.43-4.26L33.43-4.26Q33.43-6.04 31.66-6.04L31.66-6.04ZM29.26-11.57L29.26-8.29L31.04-8.29Q32.17-8.30 32.65-8.70Q33.13-9.10 33.13-9.88L33.13-9.88Q33.13-10.78 32.61-11.18Q32.09-11.57 30.94-11.57L30.94-11.57L29.26-11.57ZM45.03-10.64L44.97-7.59L43.89-7.67Q42.33-7.67 41.89-6.69L41.89-6.69L41.89 0L38.60 0L38.60-10.57L41.69-10.57L41.80-9.21Q42.63-10.76 44.11-10.76L44.11-10.76Q44.64-10.76 45.03-10.64L45.03-10.64ZM52.55 0L52.45-1.14Q51.41 0.20 49.63 0.20L49.63 0.20Q47.89 0.20 47.00-0.82Q46.10-1.83 46.10-3.72L46.10-3.72L46.10-10.57L49.39-10.57L49.39-3.70Q49.39-2.34 50.71-2.34L50.71-2.34Q51.85-2.34 52.32-3.15L52.32-3.15L52.32-10.57L55.63-10.57L55.63 0L52.55 0ZM60.65-15L60.65-9.43Q61.71-10.76 63.35-10.76L63.35-10.76Q65.10-10.76 65.99-9.73Q66.88-8.69 66.89-6.67L66.89-6.67L66.89 0L63.59 0L63.59-6.59Q63.59-7.43 63.25-7.83Q62.91-8.22 62.09-8.22L62.09-8.22Q61.07-8.22 60.65-7.58L60.65-7.58L60.65 0L57.36 0L57.36-15L60.65-15Z"></path></g></g></svg><style>@media (prefers-color-scheme: light) { :root { filter: contrast(1) brightness(1); } }
@media (prefers-color-scheme: dark) { :root { filter: none; } }
</style></svg>